# xmcd CD database file
#
# Track frame offsets:
#	150
#	16659
#	31007
#	45027
#	67680
#	85124
#	101396
#	111227
#	131127
#	149022
#	160350
#	176375
#	189053
#	209209
#	228862
#	247084
#	271426
#	283901
#	298246
#	319055
#
# Disc length: 4587 seconds
#
# Revision: 1
# Processed by: cddbd v1.5.2PL0 Copyright (c) Steve Scherf et al.
# Submitted via: jetAudio 7
#
DISCID=1a11e914
DTITLE=Tracy Chapman - Let It Rain
DYEAR=2002
DGENRE=Blues
TTITLE0=Let It Rain
TTITLE1=Another Sun
TTITLE2=You'r The One
TTITLE3=In The Dark
TTITLE4=Almost
TTITLE5=Hard Wired
TTITLE6=Say Hallelujah
TTITLE7=Broken
TTITLE8=Happy
TTITLE9=Goodbye
TTITLE10=I Am Yours
TTITLE11=Over In Love
TTITLE12=Give Me One Reason
TTITLE13=A Hundred Years
TTITLE14=Freedon New
TTITLE15=Bridges
TTITLE16=Born To Fight
TTITLE17=For My Lover
TTITLE18=Mount Ains O'things
TTITLE19=New Beginning
EXTD=
EXTT0=
EXTT1=
EXTT2=
EXTT3=
EXTT4=
EXTT5=
EXTT6=
EXTT7=
EXTT8=
EXTT9=
EXTT10=
EXTT11=
EXTT12=
EXTT13=
EXTT14=
EXTT15=
EXTT16=
EXTT17=
EXTT18=
EXTT19=
PLAYORDER=
